<?xml version="1.0" encoding="UTF-8"?>
<svg version="1.1" xmlns="http://www.w3.org/2000/svg" width="16" height="320">
<path d="M0,0 L14,0 L14,1 L15,1 L15,28 L14,28 L14,29 L0,29 L0,28 L-1,28 L-1,1 L0,1 Z M3,7 L3,22 L11,22 L11,7 Z M0,32 L10,32 L10,54 L14,54 L14,61 L0,61 L0,54 L4,54 L4,39 L0,39 Z M0,64 L14,64 L14,65 L15,65 L15,69 L14,69 L14,71 L13,71 L13,73 L12,73 L12,75 L11,75 L11,77 L10,77 L10,79 L9,79 L9,81 L8,81 L8,83 L7,83 L7,85 L6,85 L6,86 L15,86 L15,93 L-1,93 L-1,89 L0,89 L0,87 L1,87 L1,85 L2,85 L2,83 L3,83 L3,81 L4,81 L4,79 L5,79 L5,77 L6,77 L6,75 L7,75 L7,73 L8,73 L8,71 L3,71 L3,73 L-1,73 L-1,65 L0,65 Z M0,96 L14,96 L14,97 L15,97 L15,109 L14,109 L14,111 L15,111 L15,124 L14,124 L14,125 L0,125 L0,124 L-1,124 L-1,116 L3,116 L3,118 L11,118 L11,112 L3,112 L3,108 L11,108 L11,103 L3,103 L3,105 L-1,105 L-1,97 L0,97 Z M9,128 L13,128 L13,146 L15,146 L15,150 L13,150 L13,152 L15,152 L15,157 L7,157 L7,152 L9,152 L9,150 L-1,150 L-1,147 L0,147 L0,145 L1,145 L1,143 L2,143 L2,141 L3,141 L3,139 L4,139 L4,137 L5,137 L5,135 L6,135 L6,133 L7,133 L7,131 L8,131 L8,129 L9,129 Z M8,139 L8,141 L7,141 L7,143 L6,143 L6,145 L5,145 L5,146 L9,146 L9,139 Z M-1,160 L15,160 L15,167 L3,167 L3,173 L14,173 L14,174 L15,174 L15,188 L14,188 L14,189 L-1,189 L-1,182 L11,182 L11,176 L0,176 L0,175 L-1,175 Z M0,192 L14,192 L14,193 L15,193 L15,201 L11,201 L11,199 L3,199 L3,205 L14,205 L14,206 L15,206 L15,220 L14,220 L14,221 L0,221 L0,220 L-1,220 L-1,193 L0,193 Z M3,208 L3,214 L11,214 L11,208 Z M-1,224 L15,224 L15,231 L14,231 L14,234 L13,234 L13,237 L12,237 L12,240 L11,240 L11,243 L10,243 L10,246 L9,246 L9,249 L8,249 L8,252 L7,252 L7,253 L4,253 L4,248 L5,248 L5,245 L6,245 L6,242 L7,242 L7,239 L8,239 L8,236 L9,236 L9,233 L10,233 L10,231 L-1,231 Z M0,256 L14,256 L14,257 L15,257 L15,270 L14,270 L14,271 L15,271 L15,284 L14,284 L14,285 L0,285 L0,284 L-1,284 L-1,271 L0,271 L0,270 L-1,270 L-1,257 L0,257 Z M3,263 L3,269 L11,269 L11,263 Z M3,272 L3,278 L11,278 L11,272 Z M0,288 L14,288 L14,289 L15,289 L15,316 L14,316 L14,317 L0,317 L0,316 L-1,316 L-1,308 L3,308 L3,310 L11,310 L11,304 L0,304 L0,303 L-1,303 L-1,289 L0,289 Z M3,295 L3,301 L11,301 L11,295 Z " fill="#080000" transform="translate(1,3)"/>
</svg>
